<svg width="17" height="24" viewBox="0 0 17 24" fill="none" xmlns="http://www.w3.org/2000/svg">
<path d="M3.02725 19.1588C-2.32091 -3.71931 15.9133 1.45253 15.9133 1.45253C15.9133 1.45253 19.6822 26.5103 3.02725 19.1588Z" fill="#ACD085" stroke="#202700" stroke-width="0.440971" stroke-linecap="round" stroke-linejoin="round"/>
<path d="M12.4965 6.14893L0.219971 23.0163" stroke="#202700" stroke-width="0.440971" stroke-linecap="round" stroke-linejoin="round"/>
<path d="M8.7589 11.2843C8.7589 11.2843 6.72962 8.9896 7.96273 4.81885" stroke="#202700" stroke-width="0.440971" stroke-linecap="round" stroke-linejoin="round"/>
<path d="M8.75891 11.2847C8.75891 11.2847 10.429 14.0716 13.4643 12.3773" stroke="#202700" stroke-width="0.440971" stroke-linecap="round" stroke-linejoin="round"/>
<path d="M5.9627 15.1258C5.9627 15.1258 3.33908 12.16 4.93444 6.76904" stroke="#202700" stroke-width="0.440971" stroke-linecap="round" stroke-linejoin="round"/>
<path d="M5.96271 15.125C5.96271 15.125 8.12216 18.73 12.0445 16.5379" stroke="#202700" stroke-width="0.440971" stroke-linecap="round" stroke-linejoin="round"/>
<path d="M3.02725 19.1588C-2.32091 -3.71931 15.9133 1.45253 15.9133 1.45253C15.9133 1.45253 19.6822 26.5103 3.02725 19.1588Z" fill="#ACD085" stroke="#202700" stroke-width="0.440971" stroke-linecap="round" stroke-linejoin="round"/>
<path d="M12.4965 6.14893L0.219971 23.0163" stroke="#202700" stroke-width="0.440971" stroke-linecap="round" stroke-linejoin="round"/>
<path d="M8.7589 11.2843C8.7589 11.2843 6.72962 8.9896 7.96273 4.81885" stroke="#202700" stroke-width="0.440971" stroke-linecap="round" stroke-linejoin="round"/>
<path d="M8.75891 11.2847C8.75891 11.2847 10.429 14.0716 13.4643 12.3773" stroke="#202700" stroke-width="0.440971" stroke-linecap="round" stroke-linejoin="round"/>
<path d="M5.9627 15.1258C5.9627 15.1258 3.33908 12.16 4.93444 6.76904" stroke="#202700" stroke-width="0.440971" stroke-linecap="round" stroke-linejoin="round"/>
<path d="M5.96271 15.125C5.96271 15.125 8.12216 18.73 12.0445 16.5379" stroke="#202700" stroke-width="0.440971" stroke-linecap="round" stroke-linejoin="round"/>
</svg>
