<svg width="306" height="306" viewBox="0 0 306 306" fill="none" xmlns="http://www.w3.org/2000/svg">
<rect width="306" height="306" rx="32" fill="white"/>
<rect width="306" height="306" rx="32" fill="#F98173" fill-opacity="0.2"/>
<path d="M144.608 204.169C163.421 145.6 99.2866 158.847 99.2866 158.847C99.2866 158.847 86.0319 222.989 144.608 204.169Z" fill="#F98173" stroke="#202700" stroke-width="3.22314" stroke-linecap="round" stroke-linejoin="round"/>
<path d="M111.296 170.876L154.47 214.041" stroke="#202700" stroke-width="3.22314" stroke-linecap="round" stroke-linejoin="round"/>
<path d="M196.859 86H159.635C156.783 86 154.47 88.3124 154.47 91.1648V111.632C154.47 114.484 156.783 116.797 159.635 116.797H196.859C199.711 116.797 202.023 114.484 202.023 111.632V91.1648C202.023 88.3124 199.711 86 196.859 86Z" fill="#ACD085" stroke="#202700" stroke-width="3.22314" stroke-linecap="round" stroke-linejoin="round"/>
<path d="M208.601 105.322V211.518C208.59 213.506 207.792 215.409 206.383 216.81C204.973 218.212 203.067 218.998 201.079 218.998H155.364C153.377 218.998 151.47 218.212 150.061 216.81C148.651 215.409 147.854 213.506 147.843 211.518V105.322C147.842 104.336 148.036 103.359 148.414 102.449C148.792 101.538 149.347 100.711 150.046 100.016C150.745 99.3203 151.575 98.7703 152.488 98.3972C153.401 98.0242 154.378 97.8355 155.364 97.8421H201.079C203.067 97.8421 204.973 98.6288 206.383 100.03C207.792 101.432 208.59 103.334 208.601 105.322Z" fill="white" stroke="#202700" stroke-width="3.22314" stroke-linecap="round" stroke-linejoin="round"/>
<path d="M208.601 150.679V211.521C208.59 213.508 207.792 215.411 206.383 216.812C204.973 218.214 203.067 219.001 201.079 219.001H155.364C153.377 219.001 151.47 218.214 150.061 216.812C148.651 215.411 147.854 213.508 147.843 211.521V150.679H208.601Z" fill="#ACD085" stroke="#202700" stroke-width="3.22314" stroke-linecap="round" stroke-linejoin="round"/>
<path d="M199.608 164.648V206.961" stroke="#202700" stroke-width="3.22314" stroke-linecap="round" stroke-linejoin="round"/>
</svg>
