<svg width="78" height="72" viewBox="0 0 78 72" fill="none" xmlns="http://www.w3.org/2000/svg">
<path d="M22.5711 34.2255C23.7217 30.6753 26.7271 31.22 26.7271 31.22C26.7271 31.22 27.1967 23.9506 23.0642 24.176C23.0642 24.176 18.5326 26.9655 18.5326 34.0658" fill="white"/>
<path d="M22.5711 34.2255C23.7217 30.6753 26.7271 31.22 26.7271 31.22C26.7271 31.22 27.1967 23.9506 23.0642 24.176C23.0642 24.176 18.5326 26.9655 18.5326 34.0658" stroke="#202700" stroke-width="2.05215" stroke-linecap="round" stroke-linejoin="round"/>
<path d="M22.1438 24.9739C22.3418 23.9771 22.831 23.0614 23.5495 22.3427C24.268 21.624 25.1835 21.1345 26.1802 20.9362C27.1769 20.7379 28.2101 20.8396 29.149 21.2286C30.0879 21.6175 30.8903 22.2762 31.4548 23.1213C32.0193 23.9664 32.3204 24.9599 32.3202 25.9761C32.3199 26.9924 32.0182 27.9857 31.4533 28.8305C30.8884 29.6753 30.0857 30.3336 29.1466 30.7221C28.2075 31.1106 27.1743 31.2118 26.1776 31.013" fill="white"/>
<path d="M22.1438 24.9739C22.3418 23.9771 22.831 23.0614 23.5495 22.3427C24.268 21.624 25.1835 21.1345 26.1802 20.9362C27.1769 20.7379 28.2101 20.8396 29.149 21.2286C30.0879 21.6175 30.8903 22.2762 31.4548 23.1213C32.0193 23.9664 32.3204 24.9599 32.3202 25.9761C32.3199 26.9924 32.0182 27.9857 31.4533 28.8305C30.8884 29.6753 30.0857 30.3336 29.1466 30.7221C28.2075 31.1106 27.1743 31.2118 26.1776 31.013" stroke="#202700" stroke-width="2.05215" stroke-linecap="round" stroke-linejoin="round"/>
<path d="M1.63171 70.2801H11.4933L16.1 39.4603C16.1013 39.1748 16.1589 38.8924 16.2697 38.6293C16.3806 38.3662 16.5423 38.1276 16.7457 37.9272C16.9491 37.7269 17.1901 37.5688 17.4549 37.4619C17.7196 37.3551 18.0029 37.3017 18.2884 37.3048L31.5733 37.3988C31.8586 37.4006 32.1408 37.4587 32.4036 37.5697C32.6664 37.6807 32.9048 37.8426 33.105 38.0458C33.3052 38.2491 33.4633 38.4898 33.5704 38.7543C33.6774 39.0188 33.7312 39.3018 33.7288 39.5871L36.8234 67.5705" fill="#FFA500"/>
<path d="M1.63171 70.2801H11.4933L16.1 39.4603C16.1013 39.1748 16.1589 38.8924 16.2697 38.6293C16.3806 38.3662 16.5423 38.1276 16.7457 37.9272C16.9491 37.7269 17.1901 37.5688 17.4549 37.4619C17.7196 37.3551 18.0029 37.3017 18.2884 37.3048L31.5733 37.3988C31.8586 37.4006 32.1408 37.4587 32.4036 37.5697C32.6664 37.6807 32.9048 37.8426 33.105 38.0458C33.3052 38.2491 33.4633 38.4898 33.5704 38.7543C33.6774 39.0188 33.7312 39.3018 33.7288 39.5871L36.8234 67.5705" stroke="#202700" stroke-width="2.05215" stroke-linecap="round" stroke-linejoin="round"/>
<path d="M41.2752 27.5322C42.994 22.207 47.5021 23.0241 47.5021 23.0241C47.5021 23.0241 48.2394 12.1106 42.0125 12.444C42.0125 12.444 35.208 16.6328 35.208 27.288" fill="white"/>
<path d="M41.2752 27.5322C42.994 22.207 47.5021 23.0241 47.5021 23.0241C47.5021 23.0241 48.2394 12.1106 42.0125 12.444C42.0125 12.444 35.208 16.6328 35.208 27.288" stroke="#202700" stroke-width="2.05215" stroke-linecap="round" stroke-linejoin="round"/>
<path d="M14.8509 70.7277H27.0276L32.7285 32.6057C32.7304 32.2526 32.8018 31.9032 32.9388 31.5777C33.0758 31.2522 33.2756 30.9569 33.5269 30.7087C33.7781 30.4606 34.0758 30.2644 34.4029 30.1314C34.7301 29.9984 35.0802 29.9312 35.4334 29.9337L51.8693 30.0558C52.5822 30.0607 53.2639 30.3484 53.7649 30.8555C54.2658 31.3626 54.5451 32.0478 54.5413 32.7607L59.6083 70.9625H67.9249" fill="#008180"/>
<path d="M14.8509 70.7277H27.0276L32.7285 32.6057C32.7304 32.2526 32.8018 31.9032 32.9388 31.5777C33.0758 31.2522 33.2756 30.9569 33.5269 30.7087C33.7781 30.4606 34.0758 30.2644 34.4029 30.1314C34.7301 29.9984 35.0802 29.9312 35.4334 29.9337L51.8693 30.0558C52.5822 30.0607 53.2639 30.3484 53.7649 30.8555C54.2658 31.3626 54.5451 32.0478 54.5413 32.7607L59.6083 70.9625H67.9249" stroke="#202700" stroke-width="2.05215" stroke-linecap="round" stroke-linejoin="round"/>
<path d="M40.6319 13.6509C40.9298 12.1561 41.6644 10.7832 42.7427 9.70588C43.821 8.62855 45.1945 7.89518 46.6896 7.59853C48.1847 7.30188 49.7342 7.45526 51.1421 8.0393C52.55 8.62334 53.7531 9.6118 54.5992 10.8796C55.4453 12.1475 55.8964 13.6378 55.8955 15.162C55.8945 16.6862 55.4416 18.176 54.5939 19.4428C53.7463 20.7096 52.542 21.6966 51.1334 22.2789C49.7247 22.8612 48.1751 23.0127 46.6803 22.7142" fill="white"/>
<path d="M40.6319 13.6509C40.9298 12.1561 41.6644 10.7832 42.7427 9.70588C43.821 8.62855 45.1945 7.89518 46.6896 7.59853C48.1847 7.30188 49.7342 7.45526 51.1421 8.0393C52.55 8.62334 53.7531 9.6118 54.5992 10.8796C55.4453 12.1475 55.8964 13.6378 55.8955 15.162C55.8945 16.6862 55.4416 18.176 54.5939 19.4428C53.7463 20.7096 52.542 21.6966 51.1334 22.2789C49.7247 22.8612 48.1751 23.0127 46.6803 22.7142" stroke="#202700" stroke-width="2.05215" stroke-linecap="round" stroke-linejoin="round"/>
<path d="M49.8313 10.9192C49.8313 9.396 50.2829 7.90702 51.1292 6.64053C51.9754 5.37404 53.1782 4.38693 54.5855 3.80402C55.9927 3.22112 57.5412 3.06859 59.0352 3.36575C60.5291 3.66291 61.9013 4.39641 62.9784 5.47347C64.0555 6.55053 64.7889 7.92281 65.0861 9.41673C65.3833 10.9107 65.2307 12.4591 64.6478 13.8664C64.0649 15.2736 63.0779 16.4765 61.8114 17.3227C60.5449 18.1689 59.0559 18.6206 57.5327 18.6206" fill="white"/>
<path d="M49.8313 10.9192C49.8313 9.396 50.2829 7.90702 51.1292 6.64053C51.9754 5.37404 53.1782 4.38693 54.5855 3.80402C55.9927 3.22112 57.5412 3.06859 59.0352 3.36575C60.5291 3.66291 61.9013 4.39641 62.9784 5.47347C64.0555 6.55053 64.7889 7.92281 65.0861 9.41673C65.3833 10.9107 65.2307 12.4591 64.6478 13.8664C64.0649 15.2736 63.0779 16.4765 61.8114 17.3227C60.5449 18.1689 59.0559 18.6206 57.5327 18.6206" stroke="#202700" stroke-width="2.05215" stroke-linecap="round" stroke-linejoin="round"/>
<path d="M61.4492 9.70752C62.9733 9.70752 64.4632 10.1595 65.7305 11.0063C66.9977 11.853 67.9854 13.0565 68.5687 14.4646C69.1519 15.8727 69.3046 17.4222 69.0072 18.917C68.7099 20.4119 67.976 21.7849 66.8982 22.8627C65.8205 23.9404 64.4474 24.6743 62.9526 24.9717C61.4577 25.269 59.9083 25.1164 58.5002 24.5331C57.0921 23.9499 55.8885 22.9622 55.0418 21.6949C54.195 20.4277 53.7431 18.9378 53.7431 17.4136" fill="white"/>
<path d="M61.4492 9.70752C62.9733 9.70752 64.4632 10.1595 65.7305 11.0063C66.9977 11.853 67.9854 13.0565 68.5687 14.4646C69.1519 15.8727 69.3046 17.4222 69.0072 18.917C68.7099 20.4119 67.976 21.7849 66.8982 22.8627C65.8205 23.9404 64.4474 24.6743 62.9526 24.9717C61.4577 25.269 59.9083 25.1164 58.5002 24.5331C57.0921 23.9499 55.8885 22.9622 55.0418 21.6949C54.195 20.4277 53.7431 18.9378 53.7431 17.4136" stroke="#202700" stroke-width="2.05215" stroke-linecap="round" stroke-linejoin="round"/>
<path d="M60.9561 9.7061C60.9561 8.18198 61.408 6.69209 62.2548 5.42483C63.1015 4.15757 64.3051 3.16986 65.7132 2.5866C67.1213 2.00334 68.6707 1.85073 70.1656 2.14807C71.6604 2.44541 73.0335 3.17936 74.1112 4.25708C75.189 5.3348 75.9229 6.70788 76.2202 8.20272C76.5176 9.69756 76.365 11.247 75.7817 12.6551C75.1985 14.0632 74.2107 15.2667 72.9435 16.1135C71.6762 16.9603 70.1863 17.4122 68.6622 17.4122" fill="white"/>
<path d="M60.9561 9.7061C60.9561 8.18198 61.408 6.69209 62.2548 5.42483C63.1015 4.15757 64.3051 3.16986 65.7132 2.5866C67.1213 2.00334 68.6707 1.85073 70.1656 2.14807C71.6604 2.44541 73.0335 3.17936 74.1112 4.25708C75.189 5.3348 75.9229 6.70788 76.2202 8.20272C76.5176 9.69756 76.365 11.247 75.7817 12.6551C75.1985 14.0632 74.2107 15.2667 72.9435 16.1135C71.6762 16.9603 70.1863 17.4122 68.6622 17.4122" stroke="#202700" stroke-width="2.05215" stroke-linecap="round" stroke-linejoin="round"/>
<path d="M35.6635 67.0127C22.3363 52.4035 42.8578 47.7075 42.8578 47.7075C42.8578 47.7075 55.3021 64.6882 35.6635 67.0127Z" fill="#FFA500" stroke="#202700" stroke-width="2.05215" stroke-linecap="round" stroke-linejoin="round"/>
<path d="M40.9512 52.8247L35.6635 67.0113C35.6635 67.0113 33.5926 72.1346 26.8679 70.7117" stroke="#202700" stroke-width="2.05215" stroke-linecap="round" stroke-linejoin="round"/>
</svg>
