<svg width="306" height="306" viewBox="0 0 306 306" fill="none" xmlns="http://www.w3.org/2000/svg">
<rect width="306" height="306" rx="32" fill="white"/>
<rect width="306" height="306" rx="32" fill="#F98173" fill-opacity="0.2"/>
<path d="M150.787 84.9437C150.787 86.2549 151.308 87.5123 152.235 88.4394C153.162 89.3666 154.419 89.8875 155.731 89.8875H178.477C179.128 89.8887 179.772 89.7617 180.373 89.514C180.975 89.2662 181.521 88.9023 181.982 88.4433C182.443 87.9842 182.809 87.4389 183.059 86.8384C183.309 86.238 183.438 85.5942 183.439 84.9437C183.438 84.2933 183.309 83.6495 183.059 83.049C182.809 82.4486 182.443 81.9033 181.982 81.4442C181.521 80.9852 180.975 80.6213 180.373 80.3735C179.772 80.1257 179.128 79.9988 178.477 80H155.731C154.419 80 153.162 80.5209 152.235 81.448C151.308 82.3752 150.787 83.6326 150.787 84.9437Z" fill="white" stroke="#202700" stroke-width="2.69258" stroke-linecap="round" stroke-linejoin="round"/>
<path d="M146.209 113.065C156.445 104.499 154.464 89.915 154.464 89.915H179.65C179.65 89.915 177.706 104.425 187.841 112.992C190.196 114.21 192.171 116.052 193.551 118.317C194.931 120.581 195.662 123.181 195.665 125.833V211.518C195.665 215.357 194.14 219.039 191.426 221.755C188.712 224.471 185.031 225.998 181.191 226H152.969C149.133 225.993 145.458 224.464 142.749 221.748C140.041 219.033 138.52 215.353 138.523 211.518V125.851C138.521 123.223 139.236 120.643 140.591 118.391C141.945 116.138 143.887 114.297 146.209 113.065Z" fill="#ACD085" stroke="#202700" stroke-width="2.69258" stroke-linecap="round" stroke-linejoin="round"/>
<path d="M197 181.513H135.875" stroke="#202700" stroke-width="2.69258" stroke-linecap="round" stroke-linejoin="round"/>
<path d="M194.329 121.406L139.565 121.406" stroke="#202700" stroke-width="2.69258" stroke-linecap="round" stroke-linejoin="round"/>
<path d="M137.845 212.771C179.826 175.165 122.987 155.978 122.987 155.978C122.987 155.978 82.8317 200.544 137.845 212.771Z" fill="#F98173" stroke="#202700" stroke-width="2.69258" stroke-linecap="round" stroke-linejoin="round"/>
<path d="M126.93 171.049L137.845 212.773C137.845 212.773 142.247 227.898 161.692 225.779" stroke="#202700" stroke-width="2.69258" stroke-linecap="round" stroke-linejoin="round"/>
<path d="M131.277 187.513C131.277 187.513 139.633 186.174 141.137 175.727" stroke="#202700" stroke-width="2.69258" stroke-linecap="round" stroke-linejoin="round"/>
<path d="M131.277 187.513C131.277 187.513 123.325 190.439 116.896 182.074" stroke="#202700" stroke-width="2.69258" stroke-linecap="round" stroke-linejoin="round"/>
<path d="M134.461 199.839C134.461 199.839 145.265 198.105 147.219 184.604" stroke="#202700" stroke-width="2.69258" stroke-linecap="round" stroke-linejoin="round"/>
<path d="M134.459 199.841C134.459 199.841 124.196 203.611 115.877 192.797" stroke="#202700" stroke-width="2.69258" stroke-linecap="round" stroke-linejoin="round"/>
</svg>
