<svg width="50" height="71" viewBox="0 0 50 71" fill="none" xmlns="http://www.w3.org/2000/svg">
<path d="M45.5226 69.3345V63.2886L48.3266 43.4931V32.6809L36.8229 36.7559H13.2703V39.7874L11.703 31.4914C11.0503 28.0562 8.30644 25.7503 5.57546 26.3772C2.84447 27.0042 1.16122 30.3149 1.81391 33.7673L4.08115 45.7647C4.16335 46.2034 4.28257 46.6343 4.43755 47.0529C4.72887 47.8558 5.16555 48.5981 5.72575 49.2428C5.82451 49.3545 5.93186 49.4618 6.03921 49.5649C8.18621 53.0001 11.8232 59.1276 13.2617 63.3057V69.3517" fill="#FFA500"/>
<path d="M45.5226 69.3345V63.2886L48.3266 43.4931V32.6809L36.8229 36.7559H13.2703V39.7874L11.703 31.4914C11.0503 28.0562 8.30644 25.7503 5.57546 26.3772C2.84447 27.0042 1.16122 30.3149 1.81391 33.7673L4.08114 45.7647C4.16335 46.2034 4.28257 46.6343 4.43755 47.0529C4.72887 47.8558 5.16555 48.5981 5.72575 49.2428C5.82451 49.3545 5.93186 49.4618 6.03921 49.5649C8.18621 53.0001 11.8232 59.1276 13.2617 63.3057V69.3517" stroke="#202700" stroke-width="1.87648" stroke-linecap="round" stroke-linejoin="round"/>
<path d="M13.2701 39.2956V6.82431C13.2701 4.15773 15.2325 1.98926 17.6543 1.98926C20.0718 1.98926 22.0342 4.13626 22.0342 6.82431V39.2956" fill="#FFA500"/>
<path d="M13.2701 39.2956V6.82431C13.2701 4.15773 15.2325 1.98926 17.6543 1.98926C20.0718 1.98926 22.0342 4.13626 22.0342 6.82431V39.2956" stroke="#202700" stroke-width="1.87648" stroke-linecap="round" stroke-linejoin="round"/>
<path d="M22.0343 41.7458V5.83505C22.0343 3.16418 23.9967 1 26.4185 1C28.836 1 30.7984 3.14701 30.7984 5.83505V41.7458" fill="#FFA500"/>
<path d="M22.0343 41.7458V5.83505C22.0343 3.16418 23.9967 1 26.4185 1C28.836 1 30.7984 3.14701 30.7984 5.83505V41.7458" stroke="#202700" stroke-width="1.87648" stroke-linecap="round" stroke-linejoin="round"/>
<path d="M30.8115 40.4323V11.1729C30.8115 8.50207 32.7738 6.33789 35.1956 6.33789C37.6132 6.33789 39.5755 8.4849 39.5755 11.1729V40.4323" fill="#FFA500"/>
<path d="M30.8115 40.4323V11.1729C30.8115 8.50207 32.7738 6.33789 35.1956 6.33789C37.6132 6.33789 39.5755 8.4849 39.5755 11.1729V40.4323" stroke="#202700" stroke-width="1.87648" stroke-linecap="round" stroke-linejoin="round"/>
<path d="M39.5626 41.9621V16.2281C39.5626 13.5572 41.5293 11.3931 43.9468 11.3931C46.3643 11.3931 48.3267 13.54 48.3267 16.2281V41.9621" fill="#FFA500"/>
<path d="M39.5626 41.9621V16.2281C39.5626 13.5572 41.5293 11.3931 43.9468 11.3931C46.3643 11.3931 48.3267 13.54 48.3267 16.2281V41.9621" stroke="#202700" stroke-width="1.87648" stroke-linecap="round" stroke-linejoin="round"/>
<path d="M31.8934 57.162C64.2058 41.3128 32.589 19.6753 32.589 19.6753C32.589 19.6753 0.195024 40.1277 31.8934 57.162Z" fill="#008180" stroke="#202700" stroke-width="1.87648" stroke-linecap="round" stroke-linejoin="round"/>
<path d="M32.4045 29.6196L31.8935 57.1614C31.8935 57.1614 31.988 67.2179 44.3203 69.2877" stroke="#202700" stroke-width="1.87648" stroke-linecap="round" stroke-linejoin="round"/>
<path d="M32.2025 40.4928C32.2025 40.4928 37.5743 41.1155 40.3096 34.9536" stroke="#202700" stroke-width="1.87648" stroke-linecap="round" stroke-linejoin="round"/>
<path d="M32.2024 40.4918C32.2024 40.4918 26.8134 40.9212 24.31 34.6562" stroke="#202700" stroke-width="1.87648" stroke-linecap="round" stroke-linejoin="round"/>
<path d="M32.0524 48.617C32.0524 48.617 38.9958 49.42 42.5298 41.4546" stroke="#202700" stroke-width="1.87648" stroke-linecap="round" stroke-linejoin="round"/>
<path d="M32.0522 48.6168C32.0522 48.6168 25.0873 49.1579 21.8496 41.0723" stroke="#202700" stroke-width="1.87648" stroke-linecap="round" stroke-linejoin="round"/>
</svg>
