<svg width="67" height="67" viewBox="0 0 67 67" fill="none" xmlns="http://www.w3.org/2000/svg">
<path d="M66.0248 33.5131C66.0249 41.3592 63.1878 48.9408 58.0368 54.8593C52.8858 60.7778 45.7683 64.634 37.9973 65.7167C33.3548 66.3556 28.6291 65.9832 24.1439 64.6252C19.6588 63.2672 15.5203 60.9555 12.012 57.8487C8.5037 54.7419 5.7085 50.9133 3.81799 46.6254C1.92747 42.3374 0.986326 37.6914 1.05903 33.0058C1.13173 28.3201 2.21655 23.7056 4.23918 19.4783C6.26182 15.2511 9.17443 11.5111 12.7774 8.5146C16.3805 5.51812 20.5887 3.33599 25.1138 2.11775C29.6389 0.899505 34.3739 0.673942 38.9943 1.45652C46.5572 2.75306 53.4182 6.68161 58.3646 12.5477C63.311 18.4139 66.0243 25.8399 66.0248 33.5131Z" fill="#008180" stroke="#202700" stroke-width="1.55541" stroke-linecap="round" stroke-linejoin="round"/>
<path d="M66.0247 33.5136C66.0248 41.3597 63.1878 48.9413 58.0367 54.8598C52.8857 60.7783 45.7683 64.6346 37.9972 65.7173C36.3128 65.4324 34.6539 65.0129 33.0365 64.4628C26.1023 62.1126 20.1641 57.4911 16.1831 51.3464C12.2021 45.2016 10.4113 37.8931 11.1006 30.604C11.7898 23.3149 14.9188 16.4716 19.981 11.182C25.0432 5.89229 31.7424 2.46577 38.9943 1.45703C46.5572 2.75357 53.4182 6.68212 58.3646 12.5483C63.311 18.4144 66.0242 25.8404 66.0247 33.5136Z" stroke="#212E09" stroke-width="1.55541" stroke-linecap="round" stroke-linejoin="round"/>
<path d="M56.0339 33.8557C55.9261 40.7356 53.64 47.4043 49.5043 52.9034C45.3685 58.4026 39.596 62.4491 33.0161 64.4616C31.3817 64.9649 29.709 65.3339 28.0146 65.5649C20.3651 64.2574 13.4353 60.2573 8.47727 54.2872C3.51919 48.3171 0.859665 40.7707 0.979073 33.0112C1.09848 25.2516 3.98898 17.7906 9.12841 11.9759C14.2678 6.16124 21.3173 2.37625 29.0034 1.30469C30.6895 1.58989 32.3498 2.01078 33.9682 2.56325C40.4819 4.77678 46.1265 8.99789 50.0911 14.6202C54.0557 20.2426 56.1362 26.9769 56.0339 33.8557Z" stroke="#212E09" stroke-width="1.55541" stroke-linecap="round" stroke-linejoin="round"/>
<path d="M33.9845 2.56006L33.0324 64.4625" stroke="#212E09" stroke-width="1.55541" stroke-linecap="round" stroke-linejoin="round"/>
<path d="M0.996277 33.5122H66.0206" stroke="#212E09" stroke-width="1.55541" stroke-linecap="round" stroke-linejoin="round"/>
<path d="M4.89046 18.062H14.9508H52.2336H62.1264" stroke="#212E09" stroke-width="1.55541" stroke-linecap="round" stroke-linejoin="round"/>
<path d="M4.93135 49.0356H14.8241H52.0253H62.0856" stroke="#212E09" stroke-width="1.55541" stroke-linecap="round" stroke-linejoin="round"/>
</svg>
