<svg width="33" height="31" viewBox="0 0 33 31" fill="none" xmlns="http://www.w3.org/2000/svg">
<path fill-rule="evenodd" clip-rule="evenodd" d="M6.5 4.18848C5.39543 4.18848 4.5 5.05592 4.5 6.12598V25.501C4.5 26.571 5.39543 27.4385 6.5 27.4385H26.5C27.6045 27.4385 28.5 26.571 28.5 25.501V6.12598C28.5 5.05592 27.6045 4.18848 26.5 4.18848H6.5ZM11.861 9.35866C11.8685 10.5938 10.9141 11.3549 9.78164 11.3494C8.71476 11.344 7.78476 10.5212 7.79039 9.36048C7.79601 8.26881 8.68664 7.39149 9.84352 7.41692C11.0173 7.44235 11.8685 8.27608 11.861 9.35866ZM16.8729 12.9224H13.5129H13.5111V23.9789H17.0623V23.7209C17.0623 23.2302 17.0619 22.7394 17.0615 22.2484C17.0604 20.9389 17.0592 19.628 17.0661 18.3189C17.068 18.001 17.0829 17.6705 17.1673 17.3671C17.4841 16.2337 18.5361 15.5017 19.7099 15.6816C20.4636 15.7959 20.9623 16.2192 21.1723 16.9076C21.3017 17.338 21.3599 17.8012 21.3655 18.2499C21.3807 19.6031 21.3785 20.9562 21.3764 22.3095C21.3756 22.7872 21.3748 23.2651 21.3748 23.7428V23.9771H24.9373V23.7119C24.9373 23.1281 24.9371 22.5444 24.9367 21.9606C24.936 20.5017 24.9352 19.0428 24.9392 17.5833C24.9411 16.9239 24.868 16.2737 24.7011 15.6361C24.4517 14.6879 23.9361 13.9032 23.098 13.3366C22.5036 12.9333 21.8511 12.6736 21.1217 12.6445C21.0387 12.6412 20.9549 12.6368 20.8708 12.6324C20.4979 12.6128 20.1188 12.593 19.7623 12.6627C18.7423 12.8606 17.8461 13.3129 17.1692 14.1103C17.0905 14.2017 17.0136 14.2946 16.8988 14.4332L16.8729 14.4646V12.9224ZM8.07552 23.9825H11.6099V12.9296H8.07552V23.9825Z" fill="#FAF7F7"/>
</svg>
