<svg width="33" height="31" viewBox="0 0 33 31" fill="none" xmlns="http://www.w3.org/2000/svg">
<path fill-rule="evenodd" clip-rule="evenodd" d="M21.8333 4.18848H11.1667C7.48477 4.18848 4.5 7.07998 4.5 10.6468V20.9801C4.5 24.547 7.48477 27.4385 11.1667 27.4385H21.8333C25.5152 27.4385 28.5 24.547 28.5 20.9801V10.6468C28.5 7.07998 25.5152 4.18848 21.8333 4.18848ZM26.1667 20.9801C26.1593 23.2956 24.2235 25.171 21.8333 25.1781H11.1667C8.77647 25.171 6.84065 23.2956 6.83333 20.9801V10.6468C6.84065 8.3313 8.77647 6.45598 11.1667 6.44889H21.8333C24.2235 6.45598 26.1593 8.3313 26.1667 10.6468V20.9801ZM22.8333 10.9697C23.5697 10.9697 24.1667 10.3914 24.1667 9.67806C24.1667 8.9647 23.5697 8.38639 22.8333 8.38639C22.0969 8.38639 21.5 8.9647 21.5 9.67806C21.5 10.3914 22.0969 10.9697 22.8333 10.9697ZM16.5 10.001C13.1863 10.001 10.5 12.6033 10.5 15.8135C10.5 19.0237 13.1863 21.626 16.5 21.626C19.8137 21.626 22.5 19.0237 22.5 15.8135C22.5036 14.2708 21.8725 12.7904 20.7465 11.6996C19.6205 10.6088 18.0924 9.99754 16.5 10.001ZM12.8333 15.8135C12.8333 17.7753 14.4749 19.3656 16.5 19.3656C18.5251 19.3656 20.1667 17.7753 20.1667 15.8135C20.1667 13.8517 18.5251 12.2614 16.5 12.2614C14.4749 12.2614 12.8333 13.8517 12.8333 15.8135Z" fill="#FAF7F7"/>
</svg>
