<svg width="24" height="24" viewBox="0 0 24 24" fill="none" xmlns="http://www.w3.org/2000/svg">
<path fill-rule="evenodd" clip-rule="evenodd" d="M2 0C0.895427 0 0 0.867445 0 1.9375V21.3125C0 22.3825 0.895427 23.25 2 23.25H22C23.1045 23.25 24 22.3825 24 21.3125V1.9375C24 0.867445 23.1045 0 22 0H2ZM7.36101 5.17018C7.36852 6.40534 6.41415 7.16641 5.28164 7.16096C4.21476 7.15551 3.28476 6.33268 3.29039 5.172C3.29601 4.08034 4.18664 3.20301 5.34352 3.22844C6.51727 3.25388 7.36852 4.08761 7.36101 5.17018ZM12.3729 8.73394H9.01295H9.01107V19.7904H12.5623V19.5325C12.5623 19.0417 12.5619 18.5509 12.5615 18.06C12.5604 16.7505 12.5592 15.4395 12.5661 14.1304C12.568 13.8126 12.5829 13.482 12.6673 13.1786C12.9841 12.0452 14.0361 11.3132 15.2099 11.4931C15.9636 11.6074 16.4623 12.0307 16.6723 12.7192C16.8017 13.1496 16.8599 13.6127 16.8655 14.0615C16.8807 15.4146 16.8785 16.7678 16.8764 18.121C16.8756 18.5987 16.8748 19.0766 16.8748 19.5543V19.7886H20.4373V19.5234C20.4373 18.9396 20.4371 18.3559 20.4367 17.7722C20.436 16.3132 20.4352 14.8543 20.4392 13.3948C20.4411 12.7354 20.368 12.0852 20.2011 11.4477C19.9517 10.4994 19.4361 9.71475 18.598 9.1481C18.0036 8.74483 17.3511 8.48509 16.6217 8.45603C16.5387 8.45268 16.4549 8.4483 16.3708 8.4439C15.9979 8.42437 15.6188 8.40453 15.2623 8.47419C14.2423 8.67217 13.3461 9.12446 12.6692 9.92181C12.5905 10.0133 12.5136 10.1061 12.3988 10.2447L12.3729 10.2761V8.73394ZM3.57552 19.794H7.10989V8.74113H3.57552V19.794Z" fill="#1E4BA3"/>
</svg>
